<svg width="432" height="100" viewBox="0 0 432 100" fill="none" xmlns="http://www.w3.org/2000/svg">
<g clip-path="url(#clip0_12_1828)">
<path d="M17.1193 17.1819L17.8539 86.9621C11.9776 87.6967 7.57051 84.7585 7.57051 78.8823L6.83594 20.8545C6.83594 2.49131 23.7301 -1.91582 34.0135 5.42939L86.165 35.5451C93.5104 40.6868 94.9794 50.2356 91.3067 56.8464C90.5723 51.7047 88.3687 48.7666 83.9614 45.8285L25.1991 12.7747C20.792 9.83662 17.1193 10.5711 17.1193 17.1819Z" fill="#3E464E"/>
<path d="M12.7119 90.6348C17.1191 92.1038 21.5263 91.3693 25.1989 89.1657L85.4303 53.9083C89.1029 59.05 88.3685 64.1917 83.9612 67.1298L33.2787 96.511C25.9334 100.184 16.3846 96.511 12.7119 90.6348Z" fill="#14917E"/>
<path d="M30.3408 70.0679L66.3327 49.5011L31.0754 29.6688L30.3408 70.0679Z" fill="#14917E"/>
</g>
<path d="M137.25 69.5666H124V28.6387H137.669C141.679 28.6387 145.123 29.4581 148.001 31.0968C150.879 32.7222 153.084 35.0603 154.616 38.1113C156.161 41.1489 156.934 44.7927 156.934 49.0427C156.934 53.306 156.155 56.9698 154.596 60.0341C153.051 63.0984 150.812 65.4565 147.881 67.1085C144.95 68.7473 141.406 69.5666 137.25 69.5666ZM130.175 64.1708H136.91C140.027 64.1708 142.619 63.5846 144.684 62.4122C146.749 61.2265 148.294 59.5145 149.32 57.2763C150.346 55.0247 150.859 52.2802 150.859 49.0427C150.859 45.8319 150.346 43.1074 149.32 40.8691C148.308 38.6309 146.795 36.9322 144.784 35.7731C142.772 34.614 140.274 34.0345 137.29 34.0345H130.175V64.1708Z" fill="white"/>
<path d="M164.134 69.5666V38.8707H170.109V69.5666H164.134ZM167.151 34.1344C166.112 34.1344 165.219 33.788 164.473 33.0952C163.741 32.3891 163.374 31.5498 163.374 30.5772C163.374 29.5913 163.741 28.752 164.473 28.0592C165.219 27.3531 166.112 27 167.151 27C168.19 27 169.076 27.3531 169.809 28.0592C170.555 28.752 170.928 29.5913 170.928 30.5772C170.928 31.5498 170.555 32.3891 169.809 33.0952C169.076 33.788 168.19 34.1344 167.151 34.1344Z" fill="white"/>
<path d="M201.149 46.3648L195.734 47.3241C195.507 46.6313 195.148 45.9718 194.655 45.3456C194.175 44.7194 193.522 44.2065 192.696 43.8068C191.87 43.4071 190.838 43.2073 189.599 43.2073C187.907 43.2073 186.494 43.587 185.362 44.3464C184.229 45.0925 183.663 46.0584 183.663 47.2441C183.663 48.27 184.043 49.096 184.802 49.7222C185.562 50.3484 186.787 50.8613 188.479 51.261L193.356 52.3801C196.18 53.0329 198.285 54.0388 199.671 55.3977C201.056 56.7567 201.749 58.5219 201.749 60.6936C201.749 62.5321 201.216 64.1708 200.15 65.6097C199.098 67.0353 197.626 68.1544 195.734 68.9671C193.855 69.7798 191.677 70.1861 189.199 70.1861C185.762 70.1861 182.957 69.4534 180.785 67.9879C178.614 66.509 177.282 64.4107 176.789 61.6928L182.564 60.8135C182.924 62.319 183.663 63.4581 184.782 64.2308C185.901 64.9902 187.36 65.3699 189.159 65.3699C191.117 65.3699 192.683 64.9636 193.855 64.1509C195.028 63.3248 195.614 62.319 195.614 61.1332C195.614 60.174 195.254 59.368 194.535 58.7151C193.829 58.0623 192.743 57.5694 191.277 57.2363L186.081 56.0972C183.217 55.4444 181.099 54.4052 179.726 52.9796C178.367 51.5541 177.688 49.7488 177.688 47.5639C177.688 45.752 178.194 44.1665 179.207 42.8076C180.219 41.4487 181.618 40.3895 183.403 39.6301C185.189 38.8574 187.234 38.471 189.539 38.471C192.856 38.471 195.467 39.1904 197.372 40.6293C199.278 42.0549 200.537 43.9667 201.149 46.3648Z" fill="white"/>
<path d="M208.319 81.0776V38.8707H214.154V43.8468H214.654C215 43.2073 215.5 42.4679 216.153 41.6285C216.806 40.7892 217.712 40.0564 218.871 39.4303C220.03 38.7908 221.562 38.471 223.467 38.471C225.945 38.471 228.157 39.0972 230.102 40.3495C232.047 41.6019 233.572 43.4071 234.678 45.7653C235.797 48.1234 236.357 50.9612 236.357 54.2786C236.357 57.596 235.804 60.4404 234.698 62.8119C233.592 65.1701 232.074 66.9886 230.142 68.2676C228.21 69.5333 226.005 70.1661 223.527 70.1661C221.662 70.1661 220.136 69.8531 218.951 69.2269C217.778 68.6007 216.859 67.8679 216.193 67.0286C215.527 66.1893 215.014 65.4432 214.654 64.7904H214.294V81.0776H208.319ZM214.174 54.2187C214.174 56.377 214.487 58.2688 215.114 59.8942C215.74 61.5196 216.646 62.7919 217.831 63.7112C219.017 64.6172 220.469 65.0701 222.188 65.0701C223.973 65.0701 225.465 64.5972 226.664 63.6513C227.864 62.692 228.769 61.393 229.382 59.7543C230.009 58.1156 230.322 56.2704 230.322 54.2187C230.322 52.1936 230.015 50.375 229.402 48.7629C228.803 47.1509 227.897 45.8785 226.684 44.9459C225.485 44.0133 223.987 43.547 222.188 43.547C220.456 43.547 218.991 43.9933 217.791 44.886C216.606 45.7786 215.706 47.0243 215.094 48.623C214.481 50.2218 214.174 52.087 214.174 54.2187Z" fill="white"/>
<path d="M251.985 70.2461C250.039 70.2461 248.281 69.8864 246.709 69.1669C245.137 68.4342 243.891 67.375 242.972 65.9894C242.066 64.6038 241.613 62.9052 241.613 60.8934C241.613 59.1614 241.946 57.7359 242.612 56.6168C243.278 55.4977 244.177 54.6117 245.31 53.9589C246.442 53.306 247.708 52.8131 249.107 52.48C250.506 52.1469 251.931 51.8938 253.384 51.7206C255.222 51.5074 256.714 51.3342 257.86 51.201C259.006 51.0545 259.838 50.8213 260.358 50.5016C260.878 50.1818 261.137 49.6622 261.137 48.9428V48.8029C261.137 47.0576 260.645 45.7053 259.659 44.7461C258.686 43.7868 257.234 43.3072 255.302 43.3072C253.29 43.3072 251.705 43.7535 250.546 44.6462C249.4 45.5255 248.607 46.5047 248.168 47.5839L242.552 46.3049C243.218 44.4397 244.191 42.9342 245.47 41.7884C246.762 40.6293 248.248 39.79 249.926 39.2704C251.605 38.7375 253.37 38.471 255.222 38.471C256.448 38.471 257.747 38.6176 259.119 38.9107C260.505 39.1904 261.797 39.71 262.996 40.4694C264.208 41.2288 265.201 42.3147 265.974 43.7269C266.746 45.1258 267.133 46.9444 267.133 49.1826V69.5666H261.297V65.3699H261.058C260.671 66.1426 260.092 66.902 259.319 67.6481C258.546 68.3942 257.554 69.0137 256.341 69.5067C255.129 69.9996 253.677 70.2461 251.985 70.2461ZM253.284 65.4498C254.936 65.4498 256.348 65.1234 257.52 64.4706C258.706 63.8178 259.605 62.9651 260.218 61.9126C260.844 60.8468 261.157 59.7077 261.157 58.4953V54.5384C260.944 54.7516 260.531 54.9514 259.918 55.1379C259.319 55.3111 258.633 55.4643 257.86 55.5976C257.087 55.7175 256.335 55.8307 255.602 55.9373C254.869 56.0306 254.256 56.1105 253.763 56.1771C252.604 56.3237 251.545 56.5701 250.586 56.9165C249.64 57.2629 248.88 57.7625 248.308 58.4154C247.748 59.0549 247.468 59.9075 247.468 60.9734C247.468 62.4522 248.014 63.5713 249.107 64.3307C250.199 65.0768 251.592 65.4498 253.284 65.4498Z" fill="white"/>
<path d="M289.42 38.8707V43.6669H272.653V38.8707H289.42ZM277.15 31.5165H283.125V60.5537C283.125 61.7128 283.298 62.5854 283.645 63.1716C283.991 63.7445 284.438 64.1375 284.984 64.3507C285.543 64.5506 286.149 64.6505 286.802 64.6505C287.282 64.6505 287.702 64.6172 288.061 64.5506C288.421 64.4839 288.701 64.4306 288.901 64.3907L289.98 69.3268C289.633 69.46 289.14 69.5933 288.501 69.7265C287.861 69.873 287.062 69.953 286.103 69.9663C284.531 69.993 283.065 69.7132 281.706 69.127C280.347 68.5408 279.248 67.6348 278.409 66.4091C277.57 65.1834 277.15 63.6446 277.15 61.7927V31.5165Z" fill="white"/>
<path d="M308.63 70.1861C305.659 70.1861 303.101 69.5133 300.956 68.1677C298.825 66.8088 297.186 64.9369 296.04 62.5521C294.894 60.1673 294.321 57.4361 294.321 54.3585C294.321 51.241 294.908 48.4898 296.08 46.105C297.252 43.7069 298.904 41.835 301.036 40.4894C303.168 39.1438 305.679 38.471 308.57 38.471C310.902 38.471 312.98 38.904 314.805 39.77C316.631 40.6226 318.103 41.8217 319.222 43.3672C320.354 44.9126 321.027 46.7179 321.24 48.7829H315.425C315.105 47.344 314.372 46.105 313.227 45.0658C312.094 44.0266 310.575 43.5071 308.67 43.5071C307.005 43.5071 305.546 43.9467 304.294 44.826C303.055 45.692 302.089 46.931 301.396 48.5431C300.703 50.1419 300.357 52.0337 300.357 54.2187C300.357 56.4569 300.696 58.3887 301.376 60.0141C302.055 61.6395 303.015 62.8985 304.254 63.7911C305.506 64.6838 306.978 65.1301 308.67 65.1301C309.803 65.1301 310.828 64.9236 311.748 64.5106C312.68 64.0843 313.46 63.4781 314.086 62.692C314.725 61.906 315.172 60.96 315.425 59.8542H321.24C321.027 61.8393 320.381 63.6113 319.302 65.1701C318.223 66.7288 316.777 67.9545 314.965 68.8472C313.167 69.7398 311.055 70.1861 308.63 70.1861Z" fill="white"/>
<path d="M333.606 51.3409V69.5666H327.63V28.6387H333.526V43.8668H333.905C334.625 42.2147 335.724 40.9024 337.203 39.9299C338.682 38.9573 340.613 38.471 342.998 38.471C345.103 38.471 346.942 38.904 348.514 39.77C350.099 40.636 351.325 41.9283 352.191 43.6469C353.07 45.3523 353.51 47.4839 353.51 50.0419V69.5666H347.535V50.7614C347.535 48.5098 346.955 46.7645 345.796 45.5255C344.637 44.2731 343.025 43.6469 340.96 43.6469C339.548 43.6469 338.282 43.9467 337.163 44.5462C336.057 45.1458 335.184 46.0251 334.545 47.1842C333.919 48.3299 333.606 49.7155 333.606 51.3409Z" fill="white"/>
<path d="M370.417 70.2461C368.472 70.2461 366.713 69.8864 365.141 69.1669C363.569 68.4342 362.323 67.375 361.404 65.9894C360.498 64.6038 360.045 62.9052 360.045 60.8934C360.045 59.1614 360.378 57.7359 361.044 56.6168C361.71 55.4977 362.61 54.6117 363.742 53.9589C364.874 53.306 366.14 52.8131 367.539 52.48C368.938 52.1469 370.363 51.8938 371.816 51.7206C373.654 51.5074 375.146 51.3342 376.292 51.201C377.438 51.0545 378.271 50.8213 378.79 50.5016C379.31 50.1818 379.57 49.6622 379.57 48.9428V48.8029C379.57 47.0576 379.077 45.7053 378.091 44.7461C377.118 43.7868 375.666 43.3072 373.734 43.3072C371.722 43.3072 370.137 43.7535 368.978 44.6462C367.832 45.5255 367.039 46.5047 366.6 47.5839L360.984 46.3049C361.65 44.4397 362.623 42.9342 363.902 41.7884C365.194 40.6293 366.68 39.79 368.358 39.2704C370.037 38.7375 371.802 38.471 373.654 38.471C374.88 38.471 376.179 38.6176 377.551 38.9107C378.937 39.1904 380.229 39.71 381.428 40.4694C382.64 41.2288 383.633 42.3147 384.406 43.7269C385.179 45.1258 385.565 46.9444 385.565 49.1826V69.5666H379.729V65.3699H379.49C379.103 66.1426 378.524 66.902 377.751 67.6481C376.978 68.3942 375.986 69.0137 374.773 69.5067C373.561 69.9996 372.109 70.2461 370.417 70.2461ZM371.716 65.4498C373.368 65.4498 374.78 65.1234 375.952 64.4706C377.138 63.8178 378.037 62.9651 378.65 61.9126C379.276 60.8468 379.59 59.7077 379.59 58.4953V54.5384C379.376 54.7516 378.963 54.9514 378.351 55.1379C377.751 55.3111 377.065 55.4643 376.292 55.5976C375.519 55.7175 374.767 55.8307 374.034 55.9373C373.301 56.0306 372.688 56.1105 372.195 56.1771C371.036 56.3237 369.977 56.5701 369.018 56.9165C368.072 57.2629 367.313 57.7625 366.74 58.4154C366.18 59.0549 365.9 59.9075 365.9 60.9734C365.9 62.4522 366.447 63.5713 367.539 64.3307C368.631 65.0768 370.024 65.4498 371.716 65.4498Z" fill="white"/>
<path d="M393.524 69.5666V38.8707H399.299V43.7469H399.619C400.178 42.0948 401.164 40.7958 402.577 39.8499C404.002 38.8907 405.614 38.411 407.413 38.411C407.786 38.411 408.225 38.4244 408.732 38.451C409.251 38.4777 409.658 38.511 409.951 38.5509V44.2665C409.711 44.1998 409.285 44.1266 408.672 44.0466C408.059 43.9534 407.446 43.9067 406.833 43.9067C405.421 43.9067 404.162 44.2065 403.056 44.806C401.964 45.3922 401.098 46.2116 400.458 47.2641C399.819 48.3033 399.499 49.489 399.499 50.8213V69.5666H393.524Z" fill="white"/>
<path d="M415.122 69.5666V38.8707H420.897V43.7469H421.217C421.776 42.0948 422.762 40.7958 424.175 39.8499C425.6 38.8907 427.212 38.411 429.011 38.411C429.384 38.411 429.824 38.4244 430.33 38.451C430.849 38.4777 431.256 38.511 431.549 38.5509V44.2665C431.309 44.1998 430.883 44.1266 430.27 44.0466C429.657 43.9534 429.044 43.9067 428.431 43.9067C427.019 43.9067 425.76 44.2065 424.654 44.806C423.562 45.3922 422.696 46.2116 422.056 47.2641C421.417 48.3033 421.097 49.489 421.097 50.8213V69.5666H415.122Z" fill="white"/>
<defs>
<clipPath id="clip0_12_1828">
<rect width="100" height="100" fill="white"/>
</clipPath>
</defs>
</svg>
